<?xml version="1.0" standalone="no"?>
<!DOCTYPE svg PUBLIC "-//W3C//DTD SVG 20010904//EN"
 "http://www.w3.org/TR/2001/REC-SVG-20010904/DTD/svg10.dtd">
<svg version="1.0" xmlns="http://www.w3.org/2000/svg"
 width="512.000000pt" height="512.000000pt" viewBox="0 0 512.000000 512.000000"
 preserveAspectRatio="xMidYMid meet">

<g transform="translate(0.000000,512.000000) scale(0.100000,-0.100000)"
fill="#000000" stroke="none">
<path d="M3615 5033 c-52 -7 -148 -34 -206 -57 l-55 -23 -21 23 c-43 48 -103
15 -103 -55 0 -35 -5 -43 -47 -74 -27 -20 -68 -56 -93 -81 -24 -25 -48 -46
-52 -46 -4 0 -8 53 -8 118 0 128 -6 146 -52 157 -19 5 -32 1 -47 -14 -19 -19
-21 -33 -21 -141 l0 -120 -100 0 -100 0 0 118 c0 64 -4 122 -8 128 -8 13 -46
34 -61 34 -6 0 -20 -9 -31 -20 -18 -18 -20 -33 -20 -140 l0 -120 -100 0 -99 0
-3 121 c-3 120 -3 122 -31 143 -26 19 -30 19 -55 5 -27 -15 -27 -15 -30 -142
l-3 -127 -99 0 -100 0 0 115 c0 110 -1 117 -25 140 -28 29 -42 31 -73 9 -21
-14 -22 -22 -22 -140 l0 -124 -100 0 -100 0 0 115 c0 110 -1 117 -25 140 -28
29 -42 31 -73 9 -21 -14 -22 -22 -22 -140 l0 -124 -100 0 -100 0 0 115 c0 110
-1 117 -25 140 -28 29 -42 31 -73 9 -21 -14 -22 -22 -22 -140 l0 -124 -100 0
-100 0 0 104 c0 118 -9 151 -44 168 -20 9 -30 8 -51 -6 -25 -16 -25 -19 -25
-141 l0 -125 -105 0 -105 0 0 124 c0 118 -1 126 -22 140 -29 21 -41 20 -69 -3
-22 -18 -24 -28 -29 -147 l-5 -127 -41 -14 c-60 -20 -118 -75 -153 -145 -30
-59 -31 -66 -31 -193 0 -145 8 -165 63 -165 46 0 57 31 57 158 0 133 16 176
82 219 l42 28 1139 3 c626 1 1137 -1 1135 -5 -1 -5 -20 -43 -40 -85 -71 -145
-103 -325 -88 -488 7 -75 28 -178 47 -226 16 -41 -71 28 -217 172 -180 178
-214 198 -325 197 -110 0 -144 -22 -336 -210 -92 -90 -168 -164 -170 -165 -2
0 -116 -4 -254 -7 -232 -6 -253 -8 -295 -28 -68 -34 -112 -75 -145 -134 l-30
-54 -5 -245 c-4 -182 -9 -251 -19 -270 -7 -14 -84 -97 -171 -185 -135 -138
-160 -168 -178 -218 -26 -70 -28 -136 -5 -208 15 -48 37 -74 184 -225 131
-133 169 -179 178 -210 6 -22 11 -128 11 -250 0 -256 6 -282 89 -365 83 -83
109 -89 365 -89 122 0 228 -5 250 -11 31 -9 76 -47 210 -178 196 -192 223
-208 345 -199 99 7 138 32 311 203 85 84 166 159 180 166 18 10 90 15 270 19
230 5 248 7 287 28 66 35 110 79 140 140 28 57 28 59 34 307 3 138 7 252 7
254 1 2 76 79 167 171 190 193 209 224 209 335 0 112 -21 146 -198 325 -85 85
-161 169 -170 187 -9 18 -16 55 -16 84 l0 51 48 -7 c98 -15 262 -7 362 19 52
13 103 27 113 31 16 7 17 -59 17 -1294 0 -1149 -2 -1306 -15 -1338 -20 -48
-41 -71 -87 -94 -36 -18 -88 -19 -1678 -19 -1371 0 -1646 2 -1673 14 -39 16
-82 61 -96 99 -8 20 -11 519 -11 1618 0 1576 0 1589 -20 1609 -24 24 -48 25
-78 4 l-22 -15 0 -1603 c0 -1473 1 -1606 17 -1652 22 -64 113 -157 171 -174
l40 -13 4 -129 c3 -115 5 -131 22 -144 23 -16 54 -18 76 -4 12 7 16 38 20 137
l5 128 100 0 100 0 5 -130 5 -130 27 -9 c39 -14 74 5 82 44 3 18 6 77 6 131
l0 99 100 0 100 0 0 -124 c0 -100 3 -128 16 -140 19 -20 54 -20 80 -2 17 13
19 29 22 140 l4 126 99 0 99 0 0 -124 c0 -138 7 -156 60 -156 50 0 60 28 60
162 l0 118 100 0 100 0 0 -123 c0 -136 8 -157 63 -157 46 0 57 31 57 162 l0
118 100 0 100 0 0 -123 c0 -136 8 -157 63 -157 46 0 57 31 57 162 l0 118 100
0 100 0 0 -123 c0 -136 8 -157 63 -157 46 0 57 31 57 162 l0 118 100 0 100 0
0 -123 c0 -136 8 -157 63 -157 46 0 57 31 57 162 l0 118 100 0 100 0 0 -123
c0 -136 8 -157 62 -157 49 0 58 25 58 158 l0 122 100 0 100 0 0 -118 c0 -133
11 -162 59 -162 52 0 61 23 61 158 l0 122 100 0 100 0 0 -118 c0 -133 11 -162
59 -162 52 0 61 23 61 162 l0 126 28 5 c44 9 119 63 152 108 63 88 60 11 60
1479 l0 1337 51 32 c171 111 319 318 379 531 32 114 38 307 12 430 -91 442
-476 754 -922 748 -58 0 -118 -3 -135 -5z m350 -138 c90 -24 232 -97 303 -155
90 -74 167 -171 217 -275 58 -118 75 -187 82 -321 12 -242 -70 -452 -246 -624
-143 -140 -312 -214 -518 -227 -447 -29 -831 313 -860 764 -26 400 246 759
642 847 88 20 293 15 380 -9z m-2101 -2000 c25 -105 114 -277 188 -364 112
-133 269 -234 443 -287 81 -25 105 -27 245 -28 129 0 168 4 234 22 44 12 81
20 83 18 6 -6 -84 -123 -134 -171 -96 -94 -235 -169 -369 -201 -87 -20 -261
-20 -347 0 -276 64 -489 265 -577 541 -28 88 -38 263 -21 360 24 135 96 284
188 386 l38 42 6 -124 c3 -68 13 -155 23 -194z m527 104 c81 -67 121 -71 217
-17 73 41 82 30 47 -61 -26 -65 -27 -74 -16 -113 9 -29 29 -57 62 -87 70 -64
66 -71 -37 -70 -105 2 -124 -9 -174 -104 -19 -37 -40 -67 -47 -67 -11 0 -19
22 -37 103 -4 15 -21 44 -39 63 -28 31 -42 37 -107 48 -92 15 -99 31 -31 69
75 42 101 78 101 140 0 29 -4 67 -10 86 -18 64 3 67 71 10z"/>
<path d="M3711 4874 c-47 -59 -17 -194 43 -194 42 0 61 35 61 110 0 53 -4 73
-19 89 -26 29 -60 26 -85 -5z"/>
<path d="M3657 4572 c-15 -16 -17 -57 -17 -336 -1 -287 1 -320 16 -337 38 -42
59 -29 247 160 155 156 178 183 175 207 -2 15 -15 36 -29 47 -36 26 -51 17
-181 -111 l-108 -107 0 228 c0 214 -1 228 -20 247 -25 25 -62 26 -83 2z"/>
<path d="M3010 4163 c-54 -21 -65 -70 -24 -102 20 -16 41 -21 84 -21 93 0 142
58 90 105 -21 19 -119 31 -150 18z"/>
<path d="M4380 4163 c-54 -21 -65 -70 -24 -102 20 -16 41 -21 84 -21 93 0 142
58 90 105 -21 19 -119 31 -150 18z"/>
<path d="M3711 3504 c-47 -59 -17 -194 43 -194 42 0 61 35 61 110 0 53 -4 73
-19 89 -26 29 -60 26 -85 -5z"/>
<path d="M452 4104 c-19 -13 -22 -24 -22 -88 0 -79 15 -106 58 -106 42 0 62
34 62 103 0 92 -41 131 -98 91z"/>
</g>
</svg>
